<svg xmlns="http://www.w3.org/2000/svg" viewBox="0 0 512 512" width="512" height="512">
  <!-- Background Circle -->
  <circle cx="256" cy="256" r="250" fill="#6a4c93" />
  
  <!-- Brain Icon -->
  <path d="M370.5,246.5c0-13.8-8.3-25.7-20.2-30.9c3.8-5.4,6.1-12,6.1-19.1c0-18.2-14.8-33-33-33c-3.9,0-7.7,0.7-11.2,2
    c-5.5-14.3-19.3-24.5-35.5-24.5c-5.5,0-10.7,1.2-15.4,3.3c-7.2-10.3-19.1-17.1-32.6-17.1c-14.7,0-27.5,8-34.4,19.8
    c-3.2-0.8-6.5-1.3-10-1.3c-21.8,0-39.5,17.7-39.5,39.5c0,6.2,1.5,12,4,17.2c-13.2,5.8-22.4,19-22.4,34.3c0,12.2,5.8,23,14.9,29.9
    c-2.4,5.2-3.8,11-3.8,17.1c0,22.5,18.3,40.8,40.8,40.8c8.2,0,15.9-2.5,22.3-6.7c6.7,10.9,18.7,18.2,32.4,18.2
    c13.9,0,26.1-7.5,32.7-18.7c4.3,1.5,8.9,2.3,13.7,2.3c18.1,0,33.4-11.7,39-27.9c1.9,0.3,3.9,0.4,5.9,0.4c21.8,0,39.5-17.7,39.5-39.5
    c0-4.1-0.6-8-1.8-11.7C364.8,264.5,370.5,256.1,370.5,246.5z" fill="#ffffff" />
  
  <!-- Question Mark -->
  <path d="M256,310c-8.3,0-15,6.7-15,15s6.7,15,15,15s15-6.7,15-15S264.3,310,256,310z M271,260v-5c0-16.5-13.5-30-30-30
    c-8.3,0-15,6.7-15,15s6.7,15,15,15c0,0,0,0,0,0c0,0,0,0,0,0v5c0,8.3,6.7,15,15,15S271,268.3,271,260z" fill="#6a4c93" />
  
  <!-- Circular Border -->
  <circle cx="256" cy="256" r="250" fill="none" stroke="#ffffff" stroke-width="12" />
</svg>